<svg xmlns="http://www.w3.org/2000/svg" xmlns:xlink="http://www.w3.org/1999/xlink" version="1.1" x="0px" y="0px" viewBox="0 0 32 40" style="enable-background:new 0 0 32 32;" xml:space="preserve"><g><path d="M22,8h4c0.404,0,0.77-0.244,0.924-0.617c0.155-0.374,0.069-0.804-0.217-1.09l-4-4c-0.285-0.286-0.715-0.371-1.09-0.217   C21.243,2.231,21,2.596,21,3v4C21,7.552,21.447,8,22,8z"/><path d="M26,9h-4c-1.1,0-2-0.9-2-2V3c0-0.36,0.1-0.71,0.27-1H6C5.45,2,5,2.45,5,3v26c0,0.35,0.18,0.67,0.47,0.85   c0.3,0.18,0.67,0.2,0.98,0.04l3.35-1.67l1.49,1.49C11.49,29.9,11.74,30,12,30c0.15,0,0.3-0.03,0.45-0.11l3.48-1.74l2.52,1.68   c0.33,0.23,0.77,0.23,1.1,0l2.52-1.68l3.48,1.74c0.31,0.16,0.68,0.14,0.98-0.04C26.82,29.67,27,29.35,27,29V8.73   C26.71,8.9,26.36,9,26,9z M11,7h4c0.553,0,1,0.448,1,1s-0.447,1-1,1h-4c-0.553,0-1-0.448-1-1S10.447,7,11,7z M21,21H11   c-0.553,0-1-0.447-1-1s0.447-1,1-1h10c0.553,0,1,0.447,1,1S21.553,21,21,21z M21,17H11c-0.553,0-1-0.448-1-1s0.447-1,1-1h10   c0.553,0,1,0.448,1,1S21.553,17,21,17z M21,13H11c-0.553,0-1-0.448-1-1s0.447-1,1-1h10c0.553,0,1,0.448,1,1S21.553,13,21,13z"/></g><text x="0" y="47" fill="#000000" font-size="5px" font-weight="bold" font-family="'Helvetica Neue', Helvetica, Arial-Unicode, Arial, Sans-serif">Created by anggun</text><text x="0" y="52" fill="#000000" font-size="5px" font-weight="bold" font-family="'Helvetica Neue', Helvetica, Arial-Unicode, Arial, Sans-serif">from the Noun Project</text></svg>